Coordinates
version=1
nRows=21
nColumns=34
inDegrees=no

Units are S.I. units (second, meters, Newtons, ...)
If the header above contains a line with 'inDegrees', this indicates whether rotational values are in degrees (yes) or radians (no).

endheader
time	pelvis_tilt	pelvis_list	pelvis_rotation	pelvis_tx	pelvis_ty	pelvis_tz	hip_flexion_r	hip_adduction_r	hip_rotation_r	knee_angle_r	ankle_angle_r	subtalar_angle_r	mtp_angle_r	hip_flexion_l	hip_adduction_l	hip_rotation_l	knee_angle_l	ankle_angle_l	subtalar_angle_l	mtp_angle_l	lumbar_extension	lumbar_bending	lumbar_rotation	arm_flex_r	arm_add_r	arm_rot_r	elbow_flex_r	pro_sup_r	arm_flex_l	arm_add_l	arm_rot_l	elbow_flex_l	pro_sup_l
0.4	0.194508	0.00840562	0.0331957	0.369745	0.913506	-0.160343	-0.368022	0.0519275	-0.0845216	0.136743	0.380208	0.201586	-0.0300841	0.274992	0.015521	-0.0507812	0.209024	0.0560917	-0.141958	-0.0304161	-0.522021	-0.0253622	0.10224	0.34667	-0.308981	0.0110257	0.699365	1.22183	0.032399	-0.199325	0.029458	0.279739	1.14658
0.41	0.1953	0.012602	0.0267629	0.38374	0.911414	-0.160629	-0.380765	0.0426983	-0.0949355	0.146789	0.39464	0.222126	-0.0300842	0.257212	0.0249632	-0.0304624	0.132284	0.0639294	-0.141145	-0.0304163	-0.52267	-0.0330158	0.110598	0.352729	-0.314508	0.0197663	0.705785	1.22992	0.0222761	-0.20228	0.0173163	0.267825	1.14547
0.42	0.196402	0.0162721	0.0198818	0.397884	0.909265	-0.16095	-0.392376	0.0334223	-0.105247	0.15958	0.408265	0.242068	-0.0300842	0.241876	0.0325334	-0.0100802	0.0680197	0.0732608	-0.139624	-0.0304166	-0.523282	-0.0402065	0.119432	0.357905	-0.319698	0.028801	0.710786	1.23723	0.0129391	-0.204978	0.00568048	0.256091	1.14478
0.43	0.197796	0.0196475	0.0126109	0.412185	0.907095	-0.161299	-0.403003	0.0238805	-0.115028	0.174823	0.420695	0.260751	-0.0300843	0.229631	0.0385878	0.00840961	0.0181154	0.0841477	-0.136732	-0.0304168	-0.523805	-0.0471816	0.128503	0.362073	-0.324361	0.0377814	0.714456	1.2435	0.00438555	-0.207465	-0.00537194	0.244748	1.14399
0.44	0.199438	0.0230679	0.00501829	0.42667	0.904936	-0.161673	-0.412762	0.0137135	-0.124148	0.192254	0.431636	0.277847	-0.0300843	0.220453	0.0437606	0.0233938	-0.0171223	0.0960205	-0.132273	-0.030417	-0.524128	-0.0542967	0.137494	0.365066	-0.328293	0.0463767	0.716897	1.24869	-0.00343818	-0.209787	-0.0158281	0.233954	1.14274
0.45	0.201239	0.026922	-0.00281598	0.44138	0.902816	-0.162074	-0.421706	0.00250822	-0.132707	0.21168	0.44081	0.293252	-0.0300843	0.213737	0.0488216	0.0338466	-0.0388011	0.107614	-0.126622	-0.0304173	-0.524094	-0.0619379	0.146049	0.366693	-0.331296	0.0542823	0.718223	1.25295	-0.0106252	-0.211977	-0.0257088	0.223818	1.14081
0.46	0.203108	0.0315852	-0.0107869	0.456359	0.900752	-0.162512	-0.429818	-0.0101106	-0.140921	0.233025	0.447863	0.306925	-0.0300844	0.208642	0.0545196	0.0393838	-0.0488672	0.117136	-0.120666	-0.0304175	-0.523543	-0.0704432	0.153818	0.366763	-0.3332	0.0612323	0.718547	1.25655	-0.0172799	-0.214056	-0.035043	0.214415	1.13818
0.47	0.204988	0.0373775	-0.0187594	0.471633	0.898792	-0.163011	-0.436999	-0.0244077	-0.149016	0.256383	0.452267	0.318735	-0.0300844	0.20443	0.0614503	0.0401661	-0.0494653	0.122583	-0.115606	-0.0304177	-0.522368	-0.0800361	0.160485	0.365121	-0.333874	0.0670097	0.717966	1.25982	-0.0234864	-0.216026	-0.0438562	0.205805	1.13494
0.48	0.206865	0.044481	-0.0265659	0.487201	0.896957	-0.163585	-0.443044	-0.0405119	-0.15715	0.282042	0.45325	0.328379	-0.0300845	0.200695	0.0699841	0.036717	-0.0424517	0.122138	-0.112682	-0.030418	-0.520537	-0.0908117	0.1658	0.36168	-0.333241	0.0714553	0.716544	1.26303	-0.0292822	-0.217868	-0.0521686	0.198038	1.13133
0.49	0.208759	0.0529433	-0.0340247	0.503039	0.895269	-0.164248	-0.44762	-0.0584087	-0.165359	0.310483	0.449767	0.335346	-0.0300845	0.197432	0.080229	0.0297249	-0.0291594	0.114565	-0.11288	-0.0304182	-0.5181	-0.102723	0.16959	0.356444	-0.331275	0.0744736	0.714306	1.2664	-0.0346454	-0.219539	-0.0599945	0.191159	1.12762
0.5	0.210689	0.0626919	-0.0409617	0.519096	0.893748	-0.165012	-0.450265	-0.077957	-0.173521	0.342331	0.440516	0.338941	-0.0300845	0.194947	0.0920413	0.0198899	-0.0104213	0.0995133	-0.116705	-0.0304184	-0.515168	-0.115592	0.171772	0.349515	-0.328001	0.0760377	0.711228	1.27	-0.0394954	-0.220978	-0.0673352	0.185199	1.12414
0.51	0.212584	0.0735582	-0.0472385	0.535299	0.89243	-0.165893	-0.450409	-0.0989297	-0.181351	0.378268	0.424027	0.338351	-0.0300846	0.193654	0.105082	0.00784058	0.0132245	0.0776953	-0.12405	-0.0304186	-0.511902	-0.129149	0.17235	0.341087	-0.323485	0.0761928	0.707243	1.27378	-0.0437056	-0.222113	-0.0741702	0.180169	1.12121
0.52	0.214353	0.0852741	-0.0527668	0.551582	0.891319	-0.166892	-0.447383	-0.121081	-0.188447	0.418927	0.398833	0.332786	-0.0300846	0.193887	0.118921	-0.00587872	0.0412617	0.0508664	-0.134206	-0.0304189	-0.508428	-0.143107	0.17138	0.331433	-0.317818	0.0750562	0.702252	1.27759	-0.0471192	-0.222875	-0.0804504	0.176062	1.11914
0.53	0.215901	0.0975942	-0.0575133	0.567876	0.890425	-0.168003	-0.440468	-0.144217	-0.194406	0.464809	0.363742	0.321677	-0.0300847	0.19581	0.133137	-0.0207874	0.0730648	0.0216125	-0.146036	-0.0304191	-0.504817	-0.157214	0.168955	0.320876	-0.311105	0.0728133	0.69614	1.28118	-0.0495711	-0.223208	-0.0861047	0.172864	1.11815
0.54	0.217106	0.110329	-0.0614921	0.584118	0.889752	-0.169215	-0.428986	-0.168204	-0.198869	0.516187	0.318107	0.304766	-0.0300847	0.199386	0.147393	-0.0364405	0.107892	-0.00700141	-0.158179	-0.0304193	-0.501099	-0.171278	0.165165	0.309772	-0.303452	0.0697046	0.68879	1.28434	-0.0509019	-0.223088	-0.0910266	0.170561	1.11837
0.55	0.217839	0.123347	-0.0647499	0.600251	0.889302	-0.170514	-0.412406	-0.192935	-0.201526	0.573007	0.262091	0.282117	-0.0300847	0.204366	0.161467	-0.0523985	0.144876	-0.0318895	-0.169265	-0.0304196	-0.497292	-0.185168	0.160085	0.29848	-0.294967	0.0660051	0.680112	1.28689	-0.0509674	-0.222518	-0.0950588	0.169153	1.11981
0.56	0.218013	0.136559	-0.0673567	0.616226	0.889073	-0.171881	-0.39045	-0.218263	-0.202097	0.634822	0.196872	0.254076	-0.0300848	0.210271	0.175257	-0.0682046	0.182987	-0.0504296	-0.178116	-0.0304198	-0.493434	-0.198799	0.153775	0.287344	-0.285757	0.0619975	0.670053	1.28868	-0.0496463	-0.221536	-0.0979876	0.168663	1.12236
0.57	0.217655	0.149887	-0.0694011	0.632004	0.88907	-0.173295	-0.36316	-0.243949	-0.200316	0.700778	0.124727	0.22121	-0.0300848	0.216377	0.188752	-0.0833851	0.220986	-0.0608626	-0.183893	-0.03042	-0.489611	-0.212107	0.146299	0.276667	-0.275934	0.057946	0.658613	1.28965	-0.0468467	-0.220201	-0.099553	0.169152	1.12577
0.58	0.216968	0.163186	-0.0710009	0.647564	0.889291	-0.174713	-0.330938	-0.269614	-0.195932	0.769663	0.0489568	0.184247	-0.0300848	0.221724	0.201988	-0.0974773	0.257432	-0.0625109	-0.186171	-0.0304202	-0.485984	-0.225033	0.137746	0.266701	-0.265622	0.0540741	0.645846	1.28978	-0.0425083	-0.218587	-0.0994738	0.170721	1.12975
0.59	0.216231	0.176255	-0.0723457	0.662894	0.889739	-0.176094	-0.294558	-0.294708	-0.188728	0.840006	-0.0263919	0.144011	-0.0300849	0.22514	0.214983	-0.110079	0.290771	-0.0557746	-0.184931	-0.0304205	-0.482847	-0.23747	0.128266	0.257629	-0.254956	0.0505545	0.63186	1.28912	-0.0366082	-0.216772	-0.0974805	0.17352	1.13392
0.6	0.215838	0.188818	-0.0736848	0.677992	0.890434	-0.177394	-0.255098	-0.318517	-0.178563	0.910194	-0.0969895	0.101378	-0.0300849	0.225346	0.227666	-0.120902	0.319483	-0.0419263	-0.180472	-0.0304207	-0.480593	-0.249237	0.118104	0.249566	-0.244093	0.0475117	0.616804	1.28774	-0.0291648	-0.214827	-0.0933469	0.177733	1.13791
